<?xml version="1.0" encoding="utf-8"?>
<!-- Generator: Adobe Illustrator 22.1.0, SVG Export Plug-In . SVG Version: 6.00 Build 0)  -->
<svg version="1.1" id="Layer_1" xmlns="http://www.w3.org/2000/svg" xmlns:xlink="http://www.w3.org/1999/xlink" x="0px" y="0px"
	 viewBox="0 0 900 146" style="enable-background:new 0 0 900 146;" xml:space="preserve">
<style type="text/css">
	.st0{fill:#FFFFFF;}
</style>
<g>
	<path class="st0" d="M39.4,22.7H2.5v100.7h36.9c31.1,0,53.6-21.2,53.6-50.5C93.1,43.9,70.5,22.7,39.4,22.7z M39.4,111.4H16.2V34.8
		h23.2c23,0,39,15.8,39,38.4C78.5,95.7,62.4,111.4,39.4,111.4z"/>
	<rect x="111.1" y="22.7" class="st0" width="13.7" height="100.7"/>
	<polygon class="st0" points="221.2,22.7 190,71.5 159.2,22.7 143.1,22.7 183,83.5 183,123.4 196.8,123.4 196.8,83.1 236.6,22.7 	
		"/>
	<path class="st0" d="M462.7,64.8c21.3,5.2,32.3,12.8,32.3,29.6c0,19-14.8,30.2-35.9,30.2c-15.4,0-29.9-5.3-42-16.1l10.6-12.6
		c9.6,8.3,19.3,13.1,31.8,13.1c10.9,0,17.8-5,17.8-12.8c0-7.3-4-11.2-22.7-15.5c-21.4-5.2-33.5-11.5-33.5-30.2
		c0-17.5,14.4-29.3,34.3-29.3c14.7,0,26.3,4.5,36.5,12.6l-9.5,13.4c-9.1-6.8-18.1-10.3-27.3-10.3c-10.3,0-16.4,5.3-16.4,12.1
		C438.9,56.8,443.5,60.2,462.7,64.8z"/>
	<path class="st0" d="M551.7,123.2h-17.8V39H502V22.6h81.6V39h-31.9V123.2z"/>
	<path class="st0" d="M857.5,123.2h-17.8V83.5l-40-60.9h20.8l28.2,44.6l28.5-44.6h20.3l-40,60.5V123.2z"/>
	<g>
		<path class="st0" d="M294.8,80.9v42.4h-17.7V22.7h17.7v41.8h48V22.7h17.7v100.6h-17.7V80.9H294.8z"/>
	</g>
	<g>
		<polyline class="st0" points="713.2,95.6 713.2,123.2 730.9,123.2 730.9,95.6 		"/>
		<path class="st0" d="M771.5,85.1c14.1-3.9,24-13.9,24-30.6c0-19.7-14.2-31.9-37.4-31.9h-44.8v42.3h17.7V38.7h25.7
			c13.1,0,20.8,5.7,20.8,16.8c0,10.3-8,17-20.7,17h-3.7v15.7l24.7,35h20.8L771.5,85.1z"/>
	</g>
	<g>
		<path class="st0" d="M745.6,72.5l-52.1,0c-1-27.5-22.2-49.9-52.4-49.9c-30.9,0-52.7,23.7-52.7,52.2s21.6,51.9,52.5,51.9
			c25.8,0,45.3-16.6,51-38.6l53.8,0V72.5z M641.1,110.4c-20,0-34.2-16.2-34.2-35.9s13.9-35.6,33.9-35.6S675,55.1,675,74.8
			S661,110.4,641.1,110.4z"/>
	</g>
	<g>
		<polygon class="st0" points="393.9,122.3 394,122.3 393.8,122.3 		"/>
		<path class="st0" d="M397.3,121.7V76.3h7.6v-6.9h-7.6V24.3c3.7-9.8,15.7-16,15.8-16l-1.5-3.1l-1.5-3.1c-0.5,0.3-10.3,5.2-16.2,14
			c-5.9-8.8-15.7-13.8-16.2-14l-3.1,6.2c0.1,0.1,12.2,6.2,15.8,16v45.1h-7.6v6.9h7.6v45.4c-3.7,9.8-15.7,16-15.8,16l3.1,6.2
			c0.5-0.3,10.3-5.2,16.2-14c5.9,8.8,15.7,13.8,16.2,14l3.1-6.2C413,137.7,401,131.5,397.3,121.7z M393.9,122.3L393.9,122.3
			L393.9,122.3L393.9,122.3z"/>
	</g>
</g>
</svg>
